<svg
  xmlns="http://www.w3.org/2000/svg"
  width="20"
  height="20"
  fill="none"
  viewBox="0 0 20 20"
>
  <path
    fill="#00FF5E"
    d="M8.284 14.9c0-.303.09-.566.236-.804.1-.163.031-.394-.149-.445-1.492-.424-2.538-1.105-2.538-3.363 0-.588.187-1.14.514-1.62.082-.12.121-.174.132-.233.011-.06-.007-.125-.041-.267a3.04 3.04 0 01.004-1.51c.044-.16.139-.253.31-.235.22.023.604.128 1.173.495.224.144.335.216.434.232.098.016.23-.017.493-.085.36-.092.73-.142 1.148-.142.418 0 .789.05 1.148.142.264.068.395.101.494.085.098-.016.21-.088.433-.232.569-.367.952-.472 1.174-.495.17-.018.265.075.309.236a3.04 3.04 0 01.004 1.509c-.034.142-.052.207-.041.267.01.06.05.113.132.233a2.86 2.86 0 01.514 1.62c0 2.258-1.046 2.94-2.538 3.363-.18.05-.248.282-.149.445.146.238.236.501.236.804v3.976c4.127-.8 7.242-4.433 7.242-8.794a8.958 8.958 0 10-17.916 0c0 4.36 3.116 7.994 7.242 8.794v-2.333a2.377 2.377 0 01-.165-.026c-.18-.034-.422-.1-.705-.224-.568-.253-1.278-.737-1.967-1.654a.625.625 0 011-.75c.562.748 1.104 1.097 1.474 1.26.148.066.271.104.363.126V14.9z"
  ></path>
</svg>
