<svg width="36" height="36" viewBox="0 0 36 36" fill="none" xmlns="http://www.w3.org/2000/svg">
<rect width="36" height="36" rx="18" fill="#00FF5E" fill-opacity="0.1"/>
<path fill-rule="evenodd" clip-rule="evenodd" d="M17.8792 13.743L17.9537 13.7909C19.0508 14.4962 19.9228 15.0568 20.5424 15.5696C21.1727 16.0914 21.6377 16.6391 21.7871 17.3501C21.877 17.7783 21.877 18.2216 21.7871 18.6499C21.6377 19.3609 21.1727 19.9086 20.5424 20.4303C19.9228 20.9432 19.0508 21.5037 17.9537 22.2091L17.8792 22.2569C16.6846 23.025 15.7385 23.6332 14.9665 24.0061C14.1897 24.3815 13.4514 24.5897 12.7222 24.3667C12.2921 24.2352 11.8982 24.0047 11.5692 23.6943C11.0186 23.175 10.805 22.4288 10.7046 21.5475C10.6045 20.669 10.6045 19.5114 10.6045 18.0423V17.9576C10.6045 16.4886 10.6045 15.331 10.7046 14.4525C10.805 13.5711 11.0186 12.825 11.5692 12.3056C11.8982 11.9953 12.2921 11.7647 12.7222 11.6332C13.4514 11.4102 14.1897 11.6185 14.9665 11.9938C15.7385 12.3667 16.6846 12.975 17.8792 13.743Z" fill="white"/>
<path fill-rule="evenodd" clip-rule="evenodd" d="M24.5628 10.5C24.1026 10.5 23.7295 10.8731 23.7295 11.3333V24.6667C23.7295 25.1269 24.1026 25.5 24.5628 25.5C25.0231 25.5 25.3962 25.1269 25.3962 24.6667V11.3333C25.3962 10.8731 25.0231 10.5 24.5628 10.5Z" fill="white"/>
</svg>
