<svg width="21" height="20" viewBox="0 0 21 20" fill="none" xmlns="http://www.w3.org/2000/svg">
<path fill-rule="evenodd" clip-rule="evenodd" d="M10.1292 5.74325L10.2037 5.79111C11.3008 6.49644 12.1728 7.057 12.7924 7.56989C13.4227 8.09163 13.8877 8.6393 14.0371 9.3503C14.127 9.77855 14.127 10.2219 14.0371 10.6501C13.8877 11.3611 13.4227 11.9088 12.7924 12.4306C12.1728 12.9435 11.3008 13.504 10.2037 14.2093L10.1292 14.2571C8.93458 15.0252 7.98849 15.6335 7.21651 16.0064C6.43973 16.3817 5.70135 16.59 4.97217 16.367C4.54208 16.2355 4.14823 16.005 3.8192 15.6946C3.26856 15.1752 3.05501 14.4291 2.95458 13.5477C2.85448 12.6692 2.85448 11.5116 2.85449 10.0426V9.95789C2.85448 8.4888 2.85448 7.33124 2.95458 6.45275C3.05501 5.57138 3.26856 4.82522 3.8192 4.30585C4.14823 3.9955 4.54208 3.76494 4.97217 3.63343C5.70135 3.41045 6.43972 3.61872 7.21651 3.994C7.98849 4.36697 8.93458 4.97523 10.1292 5.74325Z" fill="white"/>
<path fill-rule="evenodd" clip-rule="evenodd" d="M16.8128 2.5C16.3526 2.5 15.9795 2.8731 15.9795 3.33333V16.6667C15.9795 17.1269 16.3526 17.5 16.8128 17.5C17.2731 17.5 17.6462 17.1269 17.6462 16.6667V3.33333C17.6462 2.8731 17.2731 2.5 16.8128 2.5Z" fill="white"/>
</svg>
