<svg width="36" height="36" viewBox="0 0 36 36" fill="none" xmlns="http://www.w3.org/2000/svg">
<rect width="36" height="36" rx="18" fill="#00FF5E" fill-opacity="0.1"/>
<path fill-rule="evenodd" clip-rule="evenodd" d="M18.1208 22.257L18.0463 22.2091C16.9492 21.5038 16.0772 20.9432 15.4576 20.4304C14.8273 19.9086 14.3623 19.3609 14.2129 18.6499C14.123 18.2217 14.123 17.7784 14.2129 17.3501C14.3623 16.6391 14.8273 16.0914 15.4576 15.5697C16.0772 15.0568 16.9492 14.4963 18.0463 13.7909L18.1208 13.7431C19.3154 12.975 20.2615 12.3668 21.0335 11.9939C21.8103 11.6185 22.5486 11.4103 23.2778 11.6333C23.7079 11.7648 24.1018 11.9953 24.4308 12.3057C24.9814 12.825 25.195 13.5712 25.2954 14.4525C25.3955 15.331 25.3955 16.4886 25.3955 17.9577V18.0424C25.3955 19.5114 25.3955 20.669 25.2954 21.5475C25.195 22.4289 24.9814 23.175 24.4308 23.6944C24.1018 24.0047 23.7079 24.2353 23.2778 24.3668C22.5486 24.5898 21.8103 24.3815 21.0335 24.0062C20.2615 23.6333 19.3154 23.025 18.1208 22.257Z" fill="white"/>
<path fill-rule="evenodd" clip-rule="evenodd" d="M11.4372 25.5C11.8974 25.5 12.2705 25.1269 12.2705 24.6667V11.3333C12.2705 10.8731 11.8974 10.5 11.4372 10.5C10.9769 10.5 10.6038 10.8731 10.6038 11.3333V24.6667C10.6038 25.1269 10.9769 25.5 11.4372 25.5Z" fill="white"/>
</svg>
