<svg width="20" height="20" viewBox="0 0 20 20" fill="none" xmlns="http://www.w3.org/2000/svg">
<path fill-rule="evenodd" clip-rule="evenodd" d="M10.1208 14.257L10.0463 14.2091C8.94917 13.5038 8.07717 12.9432 7.45759 12.4304C6.82726 11.9086 6.36226 11.3609 6.21292 10.6499C6.12301 10.2217 6.12301 9.77836 6.21292 9.35011C6.36226 8.63911 6.82726 8.09144 7.45759 7.56969C8.07717 7.05677 8.94917 6.49627 10.0463 5.79094L10.1208 5.74311C11.3154 4.97502 12.2615 4.36677 13.0335 3.99386C13.8103 3.61852 14.5486 3.41027 15.2778 3.63327C15.7079 3.76477 16.1018 3.99527 16.4308 4.30569C16.9814 4.82502 17.195 5.57119 17.2954 6.45252C17.3955 7.33102 17.3955 8.48861 17.3955 9.95769V10.0424C17.3955 11.5114 17.3955 12.669 17.2954 13.5475C17.195 14.4289 16.9814 15.175 16.4308 15.6944C16.1018 16.0047 15.7079 16.2353 15.2778 16.3668C14.5486 16.5898 13.8103 16.3815 13.0335 16.0062C12.2615 15.6333 11.3154 15.025 10.1208 14.257Z" fill="white"/>
<path fill-rule="evenodd" clip-rule="evenodd" d="M3.43717 17.5C3.89742 17.5 4.27051 17.1269 4.27051 16.6667V3.33333C4.27051 2.87308 3.89742 2.5 3.43717 2.5C2.97692 2.5 2.60384 2.87308 2.60384 3.33333V16.6667C2.60384 17.1269 2.97692 17.5 3.43717 17.5Z" fill="white"/>
</svg>
