<svg
            xmlns="http://www.w3.org/2000/svg"
            width="20"
            height="20"
            fill="none"
            viewBox="0 0 20 20"
        >
            <path
                stroke="#fff"
                strokeLinecap="round"
                strokeLinejoin="round"
                strokeWidth="1.25"
                d="M3.708 3.749c-.264.107-.497.24-.71.409-.166.131-.32.277-.459.434-.872.983-.872 2.455-.872 5.4 0 2.943 0 4.415.872 5.398.14.157.293.303.46.434 1.04.825 2.597.825 5.711.825h2.486c2.48 0 3.942 0 4.972-.416"
            ></path>
            <path
                stroke="#fff"
                strokeLinecap="round"
                strokeWidth="1.25"
                d="M1.667 1.667l16.666 16.666"
            ></path>
            <path
                stroke="#fff"
                strokeLinecap="round"
                strokeLinejoin="round"
                strokeWidth="1.25"
                d="M17.978 14.255s.41-1.166.35-3.487c0-1.131-.014-2.491-.03-3.738a3.716 3.716 0 00-3.757-3.671l-.359.004-7.568-.047"
                opacity="0.4"
            ></path>
        </svg>
