<svg width="36" height="36" viewBox="0 0 36 36" fill="none" xmlns="http://www.w3.org/2000/svg">
<rect width="36" height="36" rx="18" fill="#00FF5E" fill-opacity="0.1"/>
<path d="M18.036 10.7085C19.3716 10.7085 20.4235 10.7085 21.2605 10.7967C22.1163 10.8869 22.8191 11.0749 23.4258 11.4997C23.8438 11.7924 24.2074 12.156 24.5001 12.5741C24.9249 13.1808 25.1129 13.8836 25.2031 14.7393C25.2913 15.5763 25.2913 16.6282 25.2913 17.9638V18.0365C25.2913 19.3721 25.2913 20.424 25.2031 21.261C25.1129 22.1167 24.9249 22.8196 24.5001 23.4262C24.2074 23.8442 23.8438 24.2079 23.4258 24.5006C22.8191 24.9254 22.1163 25.1134 21.2605 25.2036C20.4235 25.2918 19.3716 25.2918 18.036 25.2918H17.9633C16.6278 25.2918 15.5758 25.2918 14.7388 25.2036C13.8831 25.1134 13.1803 24.9254 12.5736 24.5006C12.1556 24.2079 11.7919 23.8442 11.4992 23.4262C11.0744 22.8196 10.8864 22.1167 10.7962 21.261C10.708 20.424 10.708 19.3721 10.708 18.0365V17.9638C10.708 16.6282 10.708 15.5763 10.7962 14.7393C10.8864 13.8836 11.0744 13.1808 11.4992 12.5741C11.7919 12.156 12.1556 11.7924 12.5736 11.4997C13.1803 11.0749 13.8831 10.8869 14.7388 10.7967C15.5758 10.7085 16.6278 10.7085 17.9633 10.7085H18.036Z" fill="white"/>
</svg>
