<svg width="21" height="20" viewBox="0 0 21 20" fill="none" xmlns="http://www.w3.org/2000/svg">
<path d="M10.286 2.70825C11.6216 2.70824 12.6735 2.70824 13.5105 2.79647C14.3663 2.88667 15.0691 3.07468 15.6758 3.49946C16.0938 3.79219 16.4574 4.1558 16.7501 4.57385C17.1749 5.18051 17.3629 5.88332 17.4531 6.73906C17.5413 7.57609 17.5413 8.628 17.5413 9.96358V10.0363C17.5413 11.3718 17.5413 12.4238 17.4531 13.2608C17.3629 14.1165 17.1749 14.8193 16.7501 15.426C16.4574 15.844 16.0938 16.2077 15.6758 16.5003C15.0691 16.9252 14.3663 17.1132 13.5105 17.2033C12.6735 17.2916 11.6216 17.2916 10.286 17.2916H10.2133C8.87776 17.2916 7.82584 17.2916 6.98882 17.2033C6.13307 17.1132 5.43027 16.9252 4.82361 16.5003C4.40556 16.2077 4.04194 15.844 3.74922 15.426C3.32443 14.8193 3.13642 14.1165 3.04622 13.2608C2.95799 12.4238 2.958 11.3718 2.95801 10.0363V9.96358C2.958 8.628 2.95799 7.57609 3.04622 6.73906C3.13642 5.88332 3.32443 5.18051 3.74922 4.57385C4.04194 4.1558 4.40556 3.79219 4.82361 3.49946C5.43027 3.07468 6.13307 2.88667 6.98882 2.79647C7.82584 2.70824 8.87776 2.70824 10.2133 2.70825H10.286Z" fill="white"/>
</svg>
