<svg xmlns="http://www.w3.org/2000/svg" width="20" height="20" viewBox="0 0 20 20" fill="none">
  <path d="M12.2537 16.3621L10.0372 13.8419C8.93983 12.5943 8.80983 12.046 8.88208 11.9278L9.71399 11.2578L13.0859 8.62033C13.3578 8.40767 13.4058 8.01488 13.1932 7.74299C12.9805 7.47111 12.5877 7.4231 12.3157 7.63577L8.94033 10.2759L7.92523 11.1044C7.68827 11.3588 7.53714 11.7937 7.70197 12.4122C7.85578 12.9893 8.28722 13.7522 9.20583 14.7994L8.86658 15.4685C8.64741 15.7731 8.44399 16.0559 8.25675 16.2498C8.0707 16.4423 7.73263 16.7254 7.26178 16.6318C6.79711 16.5393 6.58859 16.1552 6.48535 15.9087C6.3805 15.6583 6.29169 15.3187 6.19534 14.9503L5.77743 13.3532C5.54529 12.4662 5.46513 12.2112 5.31408 12.0235C5.29502 11.9998 5.27516 11.9769 5.25457 11.9549C5.09509 11.7842 4.86987 11.6791 4.04491 11.3484L3.99972 11.3303C3.18673 11.0044 2.51704 10.736 2.04864 10.4722C1.59486 10.2168 1.10483 9.84533 1.04845 9.21858C1.03969 9.12117 1.03984 9.02317 1.0489 8.92575C1.1072 8.29918 1.59845 7.9293 2.05303 7.67531C2.52226 7.41313 3.19278 7.14694 4.00677 6.82378L13.9935 2.85877C15.0151 2.45316 15.8503 2.12149 16.5067 1.97028C17.1758 1.81612 17.8671 1.7998 18.4087 2.30084C18.9397 2.79199 19.0033 3.4839 18.9372 4.18122C18.8715 4.87308 18.6557 5.77285 18.3894 6.88275L16.373 15.2886C16.2033 15.9961 16.0601 16.5934 15.8882 17.0268C15.7147 17.4646 15.4364 17.9347 14.874 18.0834C14.3048 18.2339 13.8344 17.9533 13.4769 17.6508C13.1257 17.3536 12.7252 16.8983 12.2537 16.3621Z" fill="#00FF5E"/>
</svg>