<svg xmlns="http://www.w3.org/2000/svg" width="20" height="20" viewBox="0 0 20 20" fill="none">
  <path d="M3.70775 3.74902C3.44395 3.85559 3.21049 3.98944 2.99852 4.15757C2.83223 4.28947 2.67845 4.43484 2.5389 4.59203C1.6665 5.57484 1.6665 7.04692 1.6665 9.99109C1.6665 12.9353 1.6665 14.4073 2.5389 15.3901C2.67845 15.5473 2.83223 15.6926 2.99852 15.8245C4.0382 16.6493 5.59548 16.6493 8.71005 16.6493H11.196C13.6756 16.6493 15.1377 16.6493 16.1679 16.2331" stroke="white" stroke-width="1.25" stroke-linecap="round" stroke-linejoin="round"/>
  <path opacity="0.4" d="M17.9785 14.2546C17.9785 14.2546 18.3885 13.0894 18.3275 10.7678C18.3275 9.63683 18.3145 8.2769 18.2985 7.03016C18.2722 4.97367 16.5883 3.33509 14.5407 3.35887L14.1823 3.36303L6.61475 3.31592" stroke="white" stroke-width="1.25" stroke-linecap="round" stroke-linejoin="round"/>
</svg>